<svg xmlns="http://www.w3.org/2000/svg" fill="none" viewBox="0 0 770 1000"><defs/><path fill="#fff" d="M590 26l9 6 6 9 2 11-4 14-8 13-64 108-17 29-78 131-90 152-72 120L90 929l-5 7-4 7-10 10-14 4-11-2-9-6-6-9-2-11 4-14 4-8 5-8 184-309 72-121 90-151 78-131 17-29 42-70v-1l7-12 12-19 11-19 6-6 4-4 14-4 11 3zM712 34l9 6 6 9 2 11-4 15-55 93-416 694-40 68-12 19-10 10-14 3-11-2-9-6-6-9-2-11 4-14 12-20 40-67 416-695 55-92 10-10 14-4 11 2z"/><path fill="#fff" d="M700 909l14 7 10 9 4 11-4 12-10 9-14 7-18 2H196l-18-2-14-7-10-9-3-12 3-11 10-9 14-7 18-2h486l18 2z"/><path fill="#fff" d="M711 37l9 6 6 9 2 11v872l-2 11-6 9-9 6-11 2-11-2-9-6-6-9-2-11V63l2-11 6-9 9-6 11-2 11 2zM583 25l9 6 6 9 2 11-2 11-6 9-9 6-11 2H75l-11-2-9-6-6-9-2-11 2-11 6-9 9-6 11-2h497l11 2z"/><path fill="#fff" d="M82 27l9 6 6 9 2 11v69l-2 11-6 9-9 7-11 2-11-2-9-7-6-9-2-11V53l2-11 6-9 9-6 11-2 11 2z"/></svg>
